<svg viewBox="0 0 320 564" fill="none" xmlns="http://www.w3.org/2000/svg">
<g clip-path="url(#clip0_94_746)">
<path d="M320 0H-754V564H320V0Z" fill="#030C0F"/>
<path d="M-754 1269C-86.702 1269 454.25 700.849 454.25 0C454.25 -700.849 -86.702 -1269 -754 -1269C-1421.3 -1269 -1962.25 -700.849 -1962.25 0C-1962.25 700.849 -1421.3 1269 -754 1269Z" fill="#030C0F"/>
<path d="M-754 1198.5C-123.774 1198.5 387.125 661.913 387.125 0C387.125 -661.913 -123.774 -1198.5 -754 -1198.5C-1384.23 -1198.5 -1895.12 -661.913 -1895.12 0C-1895.12 661.913 -1384.23 1198.5 -754 1198.5Z" fill="#0F0D20"/>
<path d="M-754 1128C-160.846 1128 320 622.977 320 0C320 -622.977 -160.846 -1128 -754 -1128C-1347.15 -1128 -1828 -622.977 -1828 0C-1828 622.977 -1347.15 1128 -754 1128Z" fill="#140E2B"/>
<path d="M-754 1057.5C-197.918 1057.5 252.875 584.041 252.875 0C252.875 -584.041 -197.918 -1057.5 -754 -1057.5C-1310.08 -1057.5 -1760.88 -584.041 -1760.88 0C-1760.88 584.041 -1310.08 1057.5 -754 1057.5Z" fill="#190E33"/>
<path d="M-754 987C-234.99 987 185.75 545.105 185.75 0C185.75 -545.105 -234.99 -987 -754 -987C-1273.01 -987 -1693.75 -545.105 -1693.75 0C-1693.75 545.105 -1273.01 987 -754 987Z" fill="#1D0F3B"/>
<path d="M-754 916.5C-272.063 916.5 118.625 506.169 118.625 0C118.625 -506.169 -272.063 -916.5 -754 -916.5C-1235.94 -916.5 -1626.62 -506.169 -1626.62 0C-1626.62 506.169 -1235.94 916.5 -754 916.5Z" fill="#201041"/>
<path d="M-754 846C-309.135 846 51.5 467.233 51.5 0C51.5 -467.233 -309.135 -846 -754 -846C-1198.87 -846 -1559.5 -467.233 -1559.5 0C-1559.5 467.233 -1198.87 846 -754 846Z" fill="#231047"/>
</g>
<defs>
<clipPath id="clip0_94_746">
<rect width="1074" height="564" fill="white" transform="translate(-754)"/>
</clipPath>
</defs>
</svg>
